<svg width="33" height="46" viewBox="0 0 33 46" fill="none" xmlns="http://www.w3.org/2000/svg">
<path d="M32.92 41.904V46H1.496V42.736L20.12 24.496C22.4667 22.192 24.0453 20.208 24.856 18.544C25.7093 16.8373 26.136 15.1307 26.136 13.424C26.136 10.7787 25.2187 8.73066 23.384 7.28C21.592 5.78666 19.0107 5.04 15.64 5.04C10.392 5.04 6.31733 6.704 3.416 10.032L0.152 7.216C1.90133 5.168 4.12 3.58933 6.808 2.48C9.53867 1.37067 12.6107 0.815998 16.024 0.815998C20.5893 0.815998 24.1947 1.904 26.84 4.08C29.528 6.21333 30.872 9.15733 30.872 12.912C30.872 15.216 30.36 17.4347 29.336 19.568C28.312 21.7013 26.3707 24.1547 23.512 26.928L8.28 41.904H32.92Z" fill="#CC4391"/>
</svg>
