<svg width="33" height="46" viewBox="0 0 33 46" fill="none" xmlns="http://www.w3.org/2000/svg">
<path d="M18.56 19.4C23.2533 19.656 26.816 20.936 29.248 23.24C31.7227 25.5013 32.96 28.4667 32.96 32.136C32.96 34.696 32.3413 36.9787 31.104 38.984C29.8667 40.9467 28.032 42.504 25.6 43.656C23.168 44.808 20.2027 45.384 16.704 45.384C13.4613 45.384 10.3893 44.872 7.488 43.848C4.62933 42.7813 2.32533 41.3733 0.576 39.624L2.816 35.976C4.30933 37.512 6.29333 38.7707 8.768 39.752C11.2427 40.6907 13.888 41.16 16.704 41.16C20.3733 41.16 23.2107 40.3707 25.216 38.792C27.2213 37.1707 28.224 34.952 28.224 32.136C28.224 29.3627 27.2213 27.1867 25.216 25.608C23.2107 24.0293 20.1813 23.24 16.128 23.24H12.928V19.848L25.344 4.296H2.432V0.199997H31.232V3.464L18.56 19.4Z" fill="#CC4391"/>
</svg>
