<svg width="33" height="46" viewBox="0 0 33 46" fill="none" xmlns="http://www.w3.org/2000/svg">
<path d="M14.104 18.568C20.5893 18.568 25.304 19.7413 28.248 22.088C31.2347 24.392 32.728 27.6347 32.728 31.816C32.728 34.4187 32.1093 36.744 30.872 38.792C29.6773 40.84 27.864 42.4613 25.432 43.656C23 44.808 20.0133 45.384 16.472 45.384C13.272 45.384 10.2213 44.872 7.32 43.848C4.46133 42.7813 2.15733 41.3733 0.408 39.624L2.648 35.976C4.14133 37.512 6.104 38.7707 8.536 39.752C10.968 40.6907 13.592 41.16 16.408 41.16C20.12 41.16 22.9787 40.328 24.984 38.664C27.032 37 28.056 34.7813 28.056 32.008C28.056 28.936 26.904 26.6107 24.6 25.032C22.3387 23.4533 18.4987 22.664 13.08 22.664H3.544L5.848 0.199997H30.36V4.296H9.88L8.344 18.568H14.104Z" fill="#CC4391"/>
</svg>
