<svg width="34" height="47" viewBox="0 0 34 47" fill="none" xmlns="http://www.w3.org/2000/svg">
<path d="M18.888 19.184C21.832 19.184 24.4347 19.7387 26.696 20.848C29 21.9573 30.792 23.536 32.072 25.584C33.352 27.5893 33.992 29.936 33.992 32.624C33.992 35.3547 33.3307 37.7653 32.008 39.856C30.6853 41.9467 28.8507 43.568 26.504 44.72C24.2 45.8293 21.5973 46.384 18.696 46.384C12.7653 46.384 8.22133 44.4427 5.064 40.56C1.90667 36.6347 0.328 31.1093 0.328 23.984C0.328 18.992 1.18133 14.768 2.888 11.312C4.59467 7.856 6.984 5.25333 10.056 3.504C13.128 1.712 16.712 0.815998 20.808 0.815998C25.2453 0.815998 28.7867 1.62666 31.432 3.248L29.576 6.96C27.4427 5.552 24.5413 4.848 20.872 4.848C15.9227 4.848 12.04 6.42667 9.224 9.584C6.408 12.6987 5 17.2427 5 23.216C5 24.2827 5.064 25.4987 5.192 26.864C6.30133 24.432 8.072 22.5547 10.504 21.232C12.936 19.8667 15.7307 19.184 18.888 19.184ZM18.504 42.48C21.7467 42.48 24.3707 41.6053 26.376 39.856C28.424 38.064 29.448 35.696 29.448 32.752C29.448 29.808 28.424 27.4613 26.376 25.712C24.3707 23.9627 21.64 23.088 18.184 23.088C15.9227 23.088 13.9173 23.5147 12.168 24.368C10.4613 25.2213 9.11733 26.3947 8.136 27.888C7.15467 29.3813 6.664 31.0453 6.664 32.88C6.664 34.5867 7.112 36.1653 8.008 37.616C8.94667 39.0667 10.312 40.24 12.104 41.136C13.896 42.032 16.0293 42.48 18.504 42.48Z" fill="#CC4391"/>
</svg>
