<svg width="197" height="40" viewBox="0 0 197 40" fill="none" xmlns="http://www.w3.org/2000/svg">
<g clip-path="url(#clip0_80_133)">
<path d="M20.3596 39.9982C31.604 39.9982 40.7193 31.0443 40.7193 19.9991C40.7193 8.95391 31.604 0 20.3596 0C9.11532 0 0 8.95391 0 19.9991C0 31.0443 9.11532 39.9982 20.3596 39.9982Z" fill="#C94C9C"/>
<path d="M24.6807 37.2174C33.1532 37.2174 40.0215 30.4707 40.0215 22.1483C40.0215 13.8258 33.1532 7.0791 24.6807 7.0791C16.2082 7.0791 9.33984 13.8258 9.33984 22.1483C9.33984 30.4707 16.2082 37.2174 24.6807 37.2174Z" fill="#CE3E96"/>
<path d="M40.0214 22.148C40.0231 24.1279 39.6369 26.0897 38.884 27.9264C37.6221 31.023 35.377 33.6372 32.4821 35.3806C29.5873 37.124 26.1971 37.9036 22.8152 37.6037C19.4333 37.3037 16.2402 35.9401 13.71 33.7155C11.1799 31.4909 9.44785 28.524 8.77109 25.2554C8.5617 24.2323 8.45456 23.1915 8.45119 22.148C8.44673 19.5623 9.10127 17.0167 10.3551 14.7433C11.609 12.4698 13.4223 10.5408 15.6296 9.13222C17.837 7.72361 20.3682 6.88019 22.9925 6.67887C25.6167 6.47754 28.2506 6.92471 30.6538 7.97961C32.5155 8.7955 34.1978 9.95942 35.6069 11.4065C37.0085 12.8407 38.1184 14.5246 38.8769 16.3679C39.6324 18.2046 40.021 20.167 40.0214 22.148ZM40.0214 22.148C40.0172 21.1607 39.9154 20.1761 39.7175 19.2082C39.1147 16.2969 37.6231 13.6352 35.4416 11.5776C34.0147 10.2293 32.3275 9.17536 30.4793 8.47796C28.6311 7.78056 26.6594 7.45381 24.6806 7.51699C21.8781 7.59581 19.155 8.44909 16.8237 9.97892C14.4924 11.5088 12.6473 13.6532 11.5002 16.1661C10.3531 18.6791 9.95045 21.4588 10.3384 24.1863C10.7263 26.9138 11.8892 29.4787 13.6935 31.5866C15.4978 33.6945 17.8705 35.2601 20.5394 36.1037C23.2083 36.9473 26.0652 37.0348 28.7824 36.3561C31.4996 35.6774 33.967 34.2601 35.9015 32.2667C37.8359 30.2733 39.1592 27.7845 39.7193 25.0861C39.9158 24.1185 40.0169 23.1346 40.0214 22.148Z" fill="white"/>
<path d="M28.4739 35.2013C34.7871 35.2013 39.9049 30.1741 39.9049 23.9727C39.9049 17.7713 34.7871 12.7441 28.4739 12.7441C22.1608 12.7441 17.043 17.7713 17.043 23.9727C17.043 30.1741 22.1608 35.2013 28.4739 35.2013Z" fill="#D1519D"/>
<path d="M39.9041 23.9724C39.9054 26.2413 39.2278 28.4606 37.9556 30.3543C36.6833 32.248 34.8725 33.7327 32.7482 34.6236C30.624 35.5146 28.28 35.7727 26.0076 35.3657C23.7353 34.9587 21.6348 33.9046 19.9674 32.3345C18.2362 30.7082 17.0519 28.6015 16.5729 26.296C16.4168 25.5309 16.3364 24.7528 16.333 23.9724C16.3352 21.2836 17.29 18.6793 19.0335 16.6065C20.777 14.5336 23.2005 13.1213 25.8882 12.612C28.576 12.1027 31.3604 12.528 33.7638 13.8151C36.1671 15.1021 38.0396 17.1706 39.0599 19.6657C39.6194 21.035 39.906 22.497 39.9041 23.9724ZM39.9041 23.9724C39.9014 21.4455 39.0035 18.9982 37.3645 17.0506C35.7254 15.1029 33.4473 13.7764 30.9212 13.2986C28.395 12.8208 25.7784 13.2216 23.5203 14.4321C21.2621 15.6427 19.5033 17.5875 18.5456 19.9328C17.5977 22.2422 17.485 24.8011 18.2262 27.1823C18.9674 29.5635 20.5178 31.6229 22.6184 33.0166C24.719 34.4103 27.2428 35.0541 29.7683 34.8403C32.2939 34.6266 34.6684 33.5683 36.4954 31.8422C37.5768 30.8254 38.4373 29.6037 39.0247 28.2511C39.612 26.8985 39.9142 25.443 39.913 23.9724H39.9041Z" fill="white"/>
<path d="M21.2695 27.5947H26.3292C26.3292 27.6244 26.5389 30.2133 29.9832 30.2133C31.8386 30.2133 33.5162 29.1258 33.5162 27.9439C33.5162 25.4999 28.995 25.3253 27.7066 25.0617C25.4317 24.62 21.5699 23.6215 21.5699 19.9991C21.5699 16.6158 25.2522 13.8506 29.745 13.8506C35.2241 13.8506 37.9201 16.5861 37.9201 19.1454H33.0968C33.0968 18.674 32.2882 17.6755 29.7432 17.6755C28.0371 17.6755 26.6296 18.7037 26.6296 19.9991C26.6296 21.5563 29.6508 21.5563 30.7314 21.7343C33.4558 22.2336 38.5759 22.8813 38.5759 27.9387C38.5759 31.2329 34.6234 33.9981 29.9832 33.9981C24.0242 34.0068 21.2695 30.1837 21.2695 27.5947Z" fill="white"/>
<path d="M54.349 31.4054H44.9174L43.6005 34.024H38.3311L48.0008 14.9082H51.5339L60.8429 34.0222H55.6659L54.349 31.4054ZM52.522 27.673L49.6181 21.5263L46.8634 27.673H52.522Z" fill="white"/>
<path d="M79.5277 29.4347V34.0225H62.6709V14.9067H67.3414V29.4347H79.5277Z" fill="white"/>
<path d="M87.3424 19.0232V22.4361H95.2172V26.5229H87.3424V29.9427H97.3125V34.0295H82.6719V14.9067H97.3125V19.0232H87.3424Z" fill="white"/>
<path d="M125.787 14.9067V34.0225H121.115V24.2586L116.535 34.0225H114.498L110.007 24.3564V34.0313H105.307V14.9067H110.007V14.994L115.517 25.7303L121.115 14.9067H125.787Z" fill="white"/>
<path d="M133.54 19.0232V22.4361H141.413V26.5229H133.54V29.9427H143.51V34.0295H128.868V14.9067H143.51V19.0232H133.54Z" fill="white"/>
<path d="M165.276 24.4349C165.28 25.6924 165.031 26.9382 164.543 28.1009C164.056 29.2636 163.339 30.3205 162.436 31.211C161.532 32.1016 160.458 32.8083 159.276 33.2907C158.094 33.7732 156.826 34.0218 155.546 34.0225H146.326V14.9067H155.548C161.505 14.9067 165.276 19.1716 165.276 24.4349ZM160.606 24.4349C160.606 21.5824 158.45 19.4945 155.996 19.4945H150.995V29.4347H155.996C158.42 29.3474 160.606 27.2875 160.606 24.4349Z" fill="white"/>
<path d="M171.804 14.9067V34.0225H167.134V14.9067H171.804Z" fill="white"/>
<path d="M190.427 31.4054H180.995L179.678 34.024H174.405L184.077 14.9082H187.61L196.922 34.024H191.742L190.427 31.4054ZM188.6 27.673L185.696 21.5263L182.936 27.673H188.6Z" fill="white"/>
</g>
<defs>
<clipPath id="clip0_80_133">
<rect width="196.923" height="40" fill="white"/>
</clipPath>
</defs>
</svg>
