<svg width="32" height="32" viewBox="0 0 32 32" fill="none" xmlns="http://www.w3.org/2000/svg">
<g opacity="0.5">
<rect width="32" height="32" rx="16" fill="#717171"/>
<g clip-path="url(#clip0_394_882)">
<path d="M16.0037 11.5949C13.5125 11.5949 11.503 13.5601 11.503 15.9964C11.503 18.4326 13.5125 20.3978 16.0037 20.3978C18.495 20.3978 20.5044 18.4326 20.5044 15.9964C20.5044 13.5601 18.495 11.5949 16.0037 11.5949ZM16.0037 18.8579C14.3938 18.8579 13.0777 17.5746 13.0777 15.9964C13.0777 14.4181 14.3899 13.1349 16.0037 13.1349C17.6175 13.1349 18.9297 14.4181 18.9297 15.9964C18.9297 17.5746 17.6136 18.8579 16.0037 18.8579ZM21.7383 11.4149C21.7383 11.9857 21.2682 12.4415 20.6885 12.4415C20.1049 12.4415 19.6387 11.9818 19.6387 11.4149C19.6387 10.848 20.1088 10.3883 20.6885 10.3883C21.2682 10.3883 21.7383 10.848 21.7383 11.4149ZM24.7191 12.4568C24.6526 11.0816 24.3314 9.8635 23.3012 8.85987C22.2749 7.85624 21.0293 7.54213 19.6231 7.47317C18.1738 7.39273 13.8297 7.39273 12.3804 7.47317C10.9781 7.5383 9.73251 7.85241 8.70232 8.85604C7.67214 9.85967 7.35486 11.0778 7.28435 12.453C7.20209 13.8704 7.20209 18.1185 7.28435 19.5359C7.35094 20.9111 7.67214 22.1292 8.70232 23.1329C9.73251 24.1365 10.9742 24.4506 12.3804 24.5195C13.8297 24.6 18.1738 24.6 19.6231 24.5195C21.0293 24.4544 22.2749 24.1403 23.3012 23.1329C24.3274 22.1292 24.6486 20.9111 24.7191 19.5359C24.8014 18.1185 24.8014 13.8742 24.7191 12.4568ZM22.8468 21.0566C22.5413 21.8074 21.9498 22.3859 21.1781 22.6885C20.0226 23.1367 17.2807 23.0333 16.0037 23.0333C14.7267 23.0333 11.9809 23.1329 10.8293 22.6885C10.0615 22.3897 9.47006 21.8113 9.16062 21.0566C8.70232 19.9266 8.80808 17.2451 8.80808 15.9964C8.80808 14.7476 8.70624 12.0623 9.16062 10.9361C9.46615 10.1853 10.0576 9.60684 10.8293 9.30422C11.9848 8.85604 14.7267 8.95946 16.0037 8.95946C17.2807 8.95946 20.0265 8.85987 21.1781 9.30422C21.9459 9.60301 22.5373 10.1814 22.8468 10.9361C23.3051 12.0661 23.1993 14.7476 23.1993 15.9964C23.1993 17.2451 23.3051 19.9304 22.8468 21.0566Z" fill="white"/>
</g>
</g>
<defs>
<clipPath id="clip0_394_882">
<rect width="17.5484" height="19.6129" fill="white" transform="translate(7.22559 6.1936)"/>
</clipPath>
</defs>
</svg>
